<?xml version="1.0" encoding="UTF-8"?>
<svg width="400" height="400" viewBox="0 0 400 400" fill="none" xmlns="http://www.w3.org/2000/svg">
  <!-- Background -->
  <rect width="400" height="400" rx="20" fill="#1E293B" opacity="0.1"/>
  
  <!-- Book -->
  <rect x="100" y="120" width="200" height="160" rx="5" fill="#3B82F6"/>
  <rect x="110" y="130" width="180" height="140" rx="3" fill="#1E293B"/>
  <rect x="120" y="140" width="160" height="120" rx="2" fill="#F8FAFC"/>
  
  <!-- Text lines -->
  <rect x="130" y="155" width="140" height="5" rx="2.5" fill="#94A3B8"/>
  <rect x="130" y="170" width="120" height="5" rx="2.5" fill="#94A3B8"/>
  <rect x="130" y="185" width="130" height="5" rx="2.5" fill="#94A3B8"/>
  <rect x="130" y="200" width="110" height="5" rx="2.5" fill="#94A3B8"/>
  <rect x="130" y="215" width="140" height="5" rx="2.5" fill="#94A3B8"/>
  <rect x="130" y="230" width="90" height="5" rx="2.5" fill="#94A3B8"/>
  <rect x="130" y="245" width="120" height="5" rx="2.5" fill="#94A3B8"/>
  
  <!-- Bookmark -->
  <path d="M260 140L280 140L280 190L270 180L260 190L260 140Z" fill="#EC4899"/>
  
  <!-- Decorative elements -->
  <circle cx="80" cy="100" r="15" fill="#3B82F6" opacity="0.5"/>
  <circle cx="320" cy="90" r="10" fill="#8B5CF6" opacity="0.5"/>
  <circle cx="340" cy="280" r="20" fill="#EC4899" opacity="0.5"/>
  <circle cx="70" cy="260" r="12" fill="#10B981" opacity="0.5"/>
  
  <!-- ReadLtr text -->
  <text x="200" y="320" font-family="Arial" font-size="24" font-weight="bold" fill="#3B82F6" text-anchor="middle">ReadLtr</text>
</svg>
